<svg xmlns="http://www.w3.org/2000/svg" xmlns:xlink="http://www.w3.org/1999/xlink" width="500" zoomAndPan="magnify" viewBox="0 0 375 157.5" height="210" preserveAspectRatio="xMidYMid meet" version="1.0"><defs><g/><clipPath id="d7ab706d13"><path d="M 361.144531 86.875 L 374.40625 86.875 L 374.40625 100.136719 L 361.144531 100.136719 Z M 361.144531 86.875 " clip-rule="nonzero"/></clipPath><clipPath id="320e490b51"><path d="M 367.777344 86.875 C 364.113281 86.875 361.144531 89.84375 361.144531 93.503906 C 361.144531 97.167969 364.113281 100.136719 367.777344 100.136719 C 371.4375 100.136719 374.40625 97.167969 374.40625 93.503906 C 374.40625 89.84375 371.4375 86.875 367.777344 86.875 Z M 367.777344 86.875 " clip-rule="nonzero"/></clipPath><clipPath id="97ff6a9698"><path d="M 0.59375 37.078125 L 79.839844 37.078125 L 79.839844 120 L 0.59375 120 Z M 0.59375 37.078125 " clip-rule="nonzero"/></clipPath><clipPath id="0688adfc42"><path d="M 45.929688 75.671875 L 10.703125 75.671875 C 9.335938 75.671875 8.347656 74.367188 8.71875 73.050781 L 18.386719 38.585938 C 18.636719 37.695312 19.449219 37.082031 20.375 37.082031 L 55.601562 37.082031 C 56.964844 37.082031 57.957031 38.386719 57.585938 39.699219 L 47.914062 74.167969 C 47.664062 75.054688 46.855469 75.671875 45.929688 75.671875 Z M 23.050781 101.6875 L 28.027344 83.941406 C 28.398438 82.625 27.410156 81.320312 26.042969 81.320312 L 7.933594 81.320312 C 7.011719 81.320312 6.199219 81.9375 5.949219 82.828125 L 0.96875 100.574219 C 0.601562 101.886719 1.589844 103.191406 2.957031 103.191406 L 21.0625 103.191406 C 21.988281 103.191406 22.800781 102.578125 23.050781 101.6875 Z M 32.210938 82.828125 L 22.542969 117.292969 C 22.171875 118.609375 23.160156 119.914062 24.527344 119.914062 L 59.753906 119.914062 C 60.679688 119.914062 61.488281 119.296875 61.738281 118.40625 L 71.410156 83.941406 C 71.78125 82.625 70.792969 81.320312 69.425781 81.320312 L 34.199219 81.320312 C 33.273438 81.320312 32.460938 81.9375 32.210938 82.828125 Z M 57.078125 55.304688 L 52.097656 73.050781 C 51.730469 74.367188 52.71875 75.671875 54.085938 75.671875 L 72.191406 75.671875 C 73.117188 75.671875 73.929688 75.054688 74.179688 74.167969 L 79.15625 56.421875 C 79.527344 55.105469 78.539062 53.800781 77.171875 53.800781 L 59.0625 53.800781 C 58.140625 53.800781 57.328125 54.414062 57.078125 55.304688 Z M 57.078125 55.304688 " clip-rule="nonzero"/></clipPath><linearGradient x1="114.296446" gradientTransform="matrix(0.165662, 0, 0, 0.165662, 0.891546, 37.081277)" y1="-47.633959" x2="358.621839" gradientUnits="userSpaceOnUse" y2="547.633992" id="96ca5fedf2"><stop stop-opacity="1" stop-color="rgb(0%, 28.999329%, 67.799377%)" offset="0"/><stop stop-opacity="1" stop-color="rgb(0%, 28.999329%, 67.799377%)" offset="0.0625"/><stop stop-opacity="1" stop-color="rgb(0.193787%, 29.052734%, 67.726135%)" offset="0.09375"/><stop stop-opacity="1" stop-color="rgb(0.915527%, 29.25415%, 67.454529%)" offset="0.0976562"/><stop stop-opacity="1" stop-color="rgb(1.443481%, 29.402161%, 67.256165%)" offset="0.101562"/><stop stop-opacity="1" stop-color="rgb(1.96991%, 29.548645%, 67.0578%)" offset="0.105469"/><stop stop-opacity="1" stop-color="rgb(2.497864%, 29.696655%, 66.859436%)" offset="0.109375"/><stop stop-opacity="1" stop-color="rgb(3.024292%, 29.84314%, 66.661072%)" offset="0.113281"/><stop stop-opacity="1" stop-color="rgb(3.552246%, 29.99115%, 66.464233%)" offset="0.117187"/><stop stop-opacity="1" stop-color="rgb(4.078674%, 30.137634%, 66.265869%)" offset="0.121094"/><stop stop-opacity="1" stop-color="rgb(4.605103%, 30.284119%, 66.067505%)" offset="0.125"/><stop stop-opacity="1" stop-color="rgb(5.131531%, 30.430603%, 65.869141%)" offset="0.128906"/><stop stop-opacity="1" stop-color="rgb(5.659485%, 30.578613%, 65.670776%)" offset="0.132812"/><stop stop-opacity="1" stop-color="rgb(6.185913%, 30.725098%, 65.472412%)" offset="0.136719"/><stop stop-opacity="1" stop-color="rgb(6.713867%, 30.873108%, 65.274048%)" offset="0.140625"/><stop stop-opacity="1" stop-color="rgb(7.240295%, 31.019592%, 65.075684%)" offset="0.144531"/><stop stop-opacity="1" stop-color="rgb(7.76825%, 31.166077%, 64.878845%)" offset="0.148438"/><stop stop-opacity="1" stop-color="rgb(8.294678%, 31.312561%, 64.680481%)" offset="0.152344"/><stop stop-opacity="1" stop-color="rgb(8.822632%, 31.460571%, 64.482117%)" offset="0.15625"/><stop stop-opacity="1" stop-color="rgb(9.34906%, 31.607056%, 64.283752%)" offset="0.160156"/><stop stop-opacity="1" stop-color="rgb(9.875488%, 31.755066%, 64.085388%)" offset="0.164062"/><stop stop-opacity="1" stop-color="rgb(10.401917%, 31.90155%, 63.887024%)" offset="0.167969"/><stop stop-opacity="1" stop-color="rgb(10.929871%, 32.049561%, 63.68866%)" offset="0.171875"/><stop stop-opacity="1" stop-color="rgb(11.456299%, 32.196045%, 63.490295%)" offset="0.175781"/><stop stop-opacity="1" stop-color="rgb(11.984253%, 32.342529%, 63.293457%)" offset="0.179688"/><stop stop-opacity="1" stop-color="rgb(12.510681%, 32.489014%, 63.095093%)" offset="0.183594"/><stop stop-opacity="1" stop-color="rgb(13.038635%, 32.637024%, 62.896729%)" offset="0.1875"/><stop stop-opacity="1" stop-color="rgb(13.565063%, 32.783508%, 62.698364%)" offset="0.191406"/><stop stop-opacity="1" stop-color="rgb(14.091492%, 32.931519%, 62.5%)" offset="0.195312"/><stop stop-opacity="1" stop-color="rgb(14.61792%, 33.078003%, 62.301636%)" offset="0.199219"/><stop stop-opacity="1" stop-color="rgb(15.145874%, 33.226013%, 62.103271%)" offset="0.203125"/><stop stop-opacity="1" stop-color="rgb(15.672302%, 33.372498%, 61.904907%)" offset="0.207031"/><stop stop-opacity="1" stop-color="rgb(16.200256%, 33.518982%, 61.708069%)" offset="0.210937"/><stop stop-opacity="1" stop-color="rgb(16.726685%, 33.665466%, 61.509705%)" offset="0.214844"/><stop stop-opacity="1" stop-color="rgb(17.254639%, 33.813477%, 61.31134%)" offset="0.21875"/><stop stop-opacity="1" stop-color="rgb(17.781067%, 33.959961%, 61.112976%)" offset="0.222656"/><stop stop-opacity="1" stop-color="rgb(18.309021%, 34.107971%, 60.914612%)" offset="0.226562"/><stop stop-opacity="1" stop-color="rgb(18.835449%, 34.254456%, 60.716248%)" offset="0.230469"/><stop stop-opacity="1" stop-color="rgb(19.361877%, 34.40094%, 60.519409%)" offset="0.234375"/><stop stop-opacity="1" stop-color="rgb(19.888306%, 34.547424%, 60.321045%)" offset="0.238281"/><stop stop-opacity="1" stop-color="rgb(20.41626%, 34.695435%, 60.122681%)" offset="0.242187"/><stop stop-opacity="1" stop-color="rgb(20.942688%, 34.841919%, 59.924316%)" offset="0.246094"/><stop stop-opacity="1" stop-color="rgb(21.470642%, 34.989929%, 59.725952%)" offset="0.25"/><stop stop-opacity="1" stop-color="rgb(21.99707%, 35.136414%, 59.527588%)" offset="0.253906"/><stop stop-opacity="1" stop-color="rgb(22.525024%, 35.284424%, 59.329224%)" offset="0.257812"/><stop stop-opacity="1" stop-color="rgb(23.051453%, 35.430908%, 59.130859%)" offset="0.261719"/><stop stop-opacity="1" stop-color="rgb(23.577881%, 35.577393%, 58.934021%)" offset="0.265625"/><stop stop-opacity="1" stop-color="rgb(24.104309%, 35.723877%, 58.735657%)" offset="0.269531"/><stop stop-opacity="1" stop-color="rgb(24.632263%, 35.871887%, 58.537292%)" offset="0.273437"/><stop stop-opacity="1" stop-color="rgb(25.158691%, 36.018372%, 58.338928%)" offset="0.277344"/><stop stop-opacity="1" stop-color="rgb(25.686646%, 36.166382%, 58.140564%)" offset="0.28125"/><stop stop-opacity="1" stop-color="rgb(26.213074%, 36.312866%, 57.9422%)" offset="0.285156"/><stop stop-opacity="1" stop-color="rgb(26.741028%, 36.459351%, 57.743835%)" offset="0.289062"/><stop stop-opacity="1" stop-color="rgb(27.267456%, 36.605835%, 57.545471%)" offset="0.292969"/><stop stop-opacity="1" stop-color="rgb(27.79541%, 36.753845%, 57.348633%)" offset="0.296875"/><stop stop-opacity="1" stop-color="rgb(28.321838%, 36.90033%, 57.150269%)" offset="0.300781"/><stop stop-opacity="1" stop-color="rgb(28.848267%, 37.04834%, 56.951904%)" offset="0.304687"/><stop stop-opacity="1" stop-color="rgb(29.374695%, 37.194824%, 56.75354%)" offset="0.308594"/><stop stop-opacity="1" stop-color="rgb(29.902649%, 37.342834%, 56.555176%)" offset="0.3125"/><stop stop-opacity="1" stop-color="rgb(30.429077%, 37.489319%, 56.356812%)" offset="0.316406"/><stop stop-opacity="1" stop-color="rgb(30.957031%, 37.635803%, 56.158447%)" offset="0.320312"/><stop stop-opacity="1" stop-color="rgb(31.483459%, 37.782288%, 55.960083%)" offset="0.324219"/><stop stop-opacity="1" stop-color="rgb(32.011414%, 37.930298%, 55.763245%)" offset="0.328125"/><stop stop-opacity="1" stop-color="rgb(32.537842%, 38.076782%, 55.56488%)" offset="0.332031"/><stop stop-opacity="1" stop-color="rgb(33.06427%, 38.224792%, 55.366516%)" offset="0.335937"/><stop stop-opacity="1" stop-color="rgb(33.590698%, 38.371277%, 55.168152%)" offset="0.339844"/><stop stop-opacity="1" stop-color="rgb(34.118652%, 38.519287%, 54.969788%)" offset="0.34375"/><stop stop-opacity="1" stop-color="rgb(34.645081%, 38.665771%, 54.771423%)" offset="0.347656"/><stop stop-opacity="1" stop-color="rgb(35.173035%, 38.812256%, 54.574585%)" offset="0.351562"/><stop stop-opacity="1" stop-color="rgb(35.699463%, 38.95874%, 54.376221%)" offset="0.355469"/><stop stop-opacity="1" stop-color="rgb(36.227417%, 39.10675%, 54.177856%)" offset="0.359375"/><stop stop-opacity="1" stop-color="rgb(36.753845%, 39.253235%, 53.979492%)" offset="0.363281"/><stop stop-opacity="1" stop-color="rgb(37.281799%, 39.401245%, 53.781128%)" offset="0.367187"/><stop stop-opacity="1" stop-color="rgb(37.808228%, 39.547729%, 53.582764%)" offset="0.371094"/><stop stop-opacity="1" stop-color="rgb(38.334656%, 39.694214%, 53.384399%)" offset="0.375"/><stop stop-opacity="1" stop-color="rgb(38.861084%, 39.840698%, 53.186035%)" offset="0.378906"/><stop stop-opacity="1" stop-color="rgb(39.389038%, 39.988708%, 52.989197%)" offset="0.382812"/><stop stop-opacity="1" stop-color="rgb(39.915466%, 40.135193%, 52.790833%)" offset="0.386719"/><stop stop-opacity="1" stop-color="rgb(40.44342%, 40.283203%, 52.592468%)" offset="0.390625"/><stop stop-opacity="1" stop-color="rgb(40.969849%, 40.429688%, 52.394104%)" offset="0.394531"/><stop stop-opacity="1" stop-color="rgb(41.497803%, 40.577698%, 52.19574%)" offset="0.398438"/><stop stop-opacity="1" stop-color="rgb(42.024231%, 40.724182%, 51.997375%)" offset="0.402344"/><stop stop-opacity="1" stop-color="rgb(42.550659%, 40.870667%, 51.799011%)" offset="0.40625"/><stop stop-opacity="1" stop-color="rgb(43.077087%, 41.017151%, 51.600647%)" offset="0.410156"/><stop stop-opacity="1" stop-color="rgb(43.605042%, 41.165161%, 51.403809%)" offset="0.414062"/><stop stop-opacity="1" stop-color="rgb(44.13147%, 41.311646%, 51.205444%)" offset="0.417969"/><stop stop-opacity="1" stop-color="rgb(44.659424%, 41.459656%, 51.00708%)" offset="0.421875"/><stop stop-opacity="1" stop-color="rgb(45.185852%, 41.60614%, 50.808716%)" offset="0.425781"/><stop stop-opacity="1" stop-color="rgb(45.713806%, 41.75415%, 50.610352%)" offset="0.429687"/><stop stop-opacity="1" stop-color="rgb(46.240234%, 41.900635%, 50.411987%)" offset="0.433594"/><stop stop-opacity="1" stop-color="rgb(46.768188%, 42.047119%, 50.213623%)" offset="0.4375"/><stop stop-opacity="1" stop-color="rgb(47.294617%, 42.193604%, 50.015259%)" offset="0.441406"/><stop stop-opacity="1" stop-color="rgb(47.821045%, 42.341614%, 49.81842%)" offset="0.445312"/><stop stop-opacity="1" stop-color="rgb(48.347473%, 42.488098%, 49.620056%)" offset="0.449219"/><stop stop-opacity="1" stop-color="rgb(48.875427%, 42.636108%, 49.421692%)" offset="0.453125"/><stop stop-opacity="1" stop-color="rgb(49.401855%, 42.782593%, 49.223328%)" offset="0.457031"/><stop stop-opacity="1" stop-color="rgb(49.92981%, 42.929077%, 49.024963%)" offset="0.460938"/><stop stop-opacity="1" stop-color="rgb(50.456238%, 43.075562%, 48.826599%)" offset="0.464844"/><stop stop-opacity="1" stop-color="rgb(50.984192%, 43.223572%, 48.629761%)" offset="0.46875"/><stop stop-opacity="1" stop-color="rgb(51.51062%, 43.370056%, 48.431396%)" offset="0.472656"/><stop stop-opacity="1" stop-color="rgb(52.037048%, 43.518066%, 48.233032%)" offset="0.476562"/><stop stop-opacity="1" stop-color="rgb(52.563477%, 43.664551%, 48.034668%)" offset="0.480469"/><stop stop-opacity="1" stop-color="rgb(53.091431%, 43.812561%, 47.836304%)" offset="0.484375"/><stop stop-opacity="1" stop-color="rgb(53.617859%, 43.959045%, 47.637939%)" offset="0.488281"/><stop stop-opacity="1" stop-color="rgb(54.145813%, 44.10553%, 47.439575%)" offset="0.492188"/><stop stop-opacity="1" stop-color="rgb(54.672241%, 44.252014%, 47.241211%)" offset="0.496094"/><stop stop-opacity="1" stop-color="rgb(55.200195%, 44.400024%, 47.044373%)" offset="0.5"/><stop stop-opacity="1" stop-color="rgb(55.726624%, 44.546509%, 46.846008%)" offset="0.503906"/><stop stop-opacity="1" stop-color="rgb(56.254578%, 44.694519%, 46.647644%)" offset="0.507812"/><stop stop-opacity="1" stop-color="rgb(56.781006%, 44.841003%, 46.44928%)" offset="0.511719"/><stop stop-opacity="1" stop-color="rgb(57.307434%, 44.989014%, 46.250916%)" offset="0.515625"/><stop stop-opacity="1" stop-color="rgb(57.833862%, 45.135498%, 46.052551%)" offset="0.519531"/><stop stop-opacity="1" stop-color="rgb(58.361816%, 45.281982%, 45.854187%)" offset="0.523438"/><stop stop-opacity="1" stop-color="rgb(58.888245%, 45.428467%, 45.655823%)" offset="0.527344"/><stop stop-opacity="1" stop-color="rgb(59.416199%, 45.576477%, 45.458984%)" offset="0.53125"/><stop stop-opacity="1" stop-color="rgb(59.942627%, 45.722961%, 45.26062%)" offset="0.535156"/><stop stop-opacity="1" stop-color="rgb(60.470581%, 45.870972%, 45.062256%)" offset="0.539062"/><stop stop-opacity="1" stop-color="rgb(60.997009%, 46.017456%, 44.863892%)" offset="0.542969"/><stop stop-opacity="1" stop-color="rgb(61.523438%, 46.16394%, 44.665527%)" offset="0.546875"/><stop stop-opacity="1" stop-color="rgb(62.049866%, 46.310425%, 44.467163%)" offset="0.550781"/><stop stop-opacity="1" stop-color="rgb(62.57782%, 46.458435%, 44.268799%)" offset="0.554688"/><stop stop-opacity="1" stop-color="rgb(63.104248%, 46.604919%, 44.070435%)" offset="0.558594"/><stop stop-opacity="1" stop-color="rgb(63.632202%, 46.75293%, 43.873596%)" offset="0.5625"/><stop stop-opacity="1" stop-color="rgb(64.15863%, 46.899414%, 43.675232%)" offset="0.566406"/><stop stop-opacity="1" stop-color="rgb(64.686584%, 47.047424%, 43.476868%)" offset="0.570312"/><stop stop-opacity="1" stop-color="rgb(65.213013%, 47.193909%, 43.278503%)" offset="0.574219"/><stop stop-opacity="1" stop-color="rgb(65.740967%, 47.340393%, 43.080139%)" offset="0.578125"/><stop stop-opacity="1" stop-color="rgb(66.267395%, 47.486877%, 42.881775%)" offset="0.582031"/><stop stop-opacity="1" stop-color="rgb(66.793823%, 47.634888%, 42.684937%)" offset="0.585938"/><stop stop-opacity="1" stop-color="rgb(67.320251%, 47.781372%, 42.486572%)" offset="0.589844"/><stop stop-opacity="1" stop-color="rgb(67.848206%, 47.929382%, 42.288208%)" offset="0.59375"/><stop stop-opacity="1" stop-color="rgb(68.374634%, 48.075867%, 42.089844%)" offset="0.597656"/><stop stop-opacity="1" stop-color="rgb(68.902588%, 48.223877%, 41.891479%)" offset="0.601562"/><stop stop-opacity="1" stop-color="rgb(69.429016%, 48.370361%, 41.693115%)" offset="0.605469"/><stop stop-opacity="1" stop-color="rgb(69.95697%, 48.516846%, 41.494751%)" offset="0.609375"/><stop stop-opacity="1" stop-color="rgb(70.483398%, 48.66333%, 41.296387%)" offset="0.613281"/><stop stop-opacity="1" stop-color="rgb(71.009827%, 48.81134%, 41.099548%)" offset="0.617188"/><stop stop-opacity="1" stop-color="rgb(71.536255%, 48.957825%, 40.901184%)" offset="0.621094"/><stop stop-opacity="1" stop-color="rgb(72.064209%, 49.105835%, 40.70282%)" offset="0.625"/><stop stop-opacity="1" stop-color="rgb(72.590637%, 49.252319%, 40.504456%)" offset="0.628906"/><stop stop-opacity="1" stop-color="rgb(73.118591%, 49.398804%, 40.306091%)" offset="0.632812"/><stop stop-opacity="1" stop-color="rgb(73.64502%, 49.545288%, 40.107727%)" offset="0.636719"/><stop stop-opacity="1" stop-color="rgb(74.172974%, 49.693298%, 39.909363%)" offset="0.640625"/><stop stop-opacity="1" stop-color="rgb(74.699402%, 49.839783%, 39.710999%)" offset="0.644531"/><stop stop-opacity="1" stop-color="rgb(75.227356%, 49.987793%, 39.51416%)" offset="0.648438"/><stop stop-opacity="1" stop-color="rgb(75.753784%, 50.134277%, 39.315796%)" offset="0.652344"/><stop stop-opacity="1" stop-color="rgb(76.280212%, 50.282288%, 39.117432%)" offset="0.65625"/><stop stop-opacity="1" stop-color="rgb(76.806641%, 50.428772%, 38.919067%)" offset="0.660156"/><stop stop-opacity="1" stop-color="rgb(77.334595%, 50.575256%, 38.720703%)" offset="0.664062"/><stop stop-opacity="1" stop-color="rgb(77.861023%, 50.721741%, 38.522339%)" offset="0.667969"/><stop stop-opacity="1" stop-color="rgb(78.388977%, 50.869751%, 38.323975%)" offset="0.671875"/><stop stop-opacity="1" stop-color="rgb(78.915405%, 51.016235%, 38.12561%)" offset="0.675781"/><stop stop-opacity="1" stop-color="rgb(79.443359%, 51.164246%, 37.928772%)" offset="0.679688"/><stop stop-opacity="1" stop-color="rgb(79.969788%, 51.31073%, 37.730408%)" offset="0.683594"/><stop stop-opacity="1" stop-color="rgb(80.496216%, 51.45874%, 37.532043%)" offset="0.6875"/><stop stop-opacity="1" stop-color="rgb(81.022644%, 51.605225%, 37.333679%)" offset="0.691406"/><stop stop-opacity="1" stop-color="rgb(81.550598%, 51.751709%, 37.135315%)" offset="0.695312"/><stop stop-opacity="1" stop-color="rgb(82.077026%, 51.898193%, 36.936951%)" offset="0.699219"/><stop stop-opacity="1" stop-color="rgb(82.60498%, 52.046204%, 36.740112%)" offset="0.703125"/><stop stop-opacity="1" stop-color="rgb(83.131409%, 52.192688%, 36.541748%)" offset="0.707031"/><stop stop-opacity="1" stop-color="rgb(83.659363%, 52.340698%, 36.343384%)" offset="0.710938"/><stop stop-opacity="1" stop-color="rgb(84.185791%, 52.487183%, 36.14502%)" offset="0.714844"/><stop stop-opacity="1" stop-color="rgb(84.713745%, 52.633667%, 35.946655%)" offset="0.71875"/><stop stop-opacity="1" stop-color="rgb(85.240173%, 52.780151%, 35.748291%)" offset="0.722656"/><stop stop-opacity="1" stop-color="rgb(85.766602%, 52.928162%, 35.549927%)" offset="0.726562"/><stop stop-opacity="1" stop-color="rgb(86.29303%, 53.074646%, 35.351562%)" offset="0.730469"/><stop stop-opacity="1" stop-color="rgb(86.820984%, 53.222656%, 35.154724%)" offset="0.734375"/><stop stop-opacity="1" stop-color="rgb(87.347412%, 53.369141%, 34.95636%)" offset="0.738281"/><stop stop-opacity="1" stop-color="rgb(87.875366%, 53.517151%, 34.757996%)" offset="0.742188"/><stop stop-opacity="1" stop-color="rgb(88.401794%, 53.663635%, 34.559631%)" offset="0.746094"/><stop stop-opacity="1" stop-color="rgb(88.929749%, 53.81012%, 34.361267%)" offset="0.75"/><stop stop-opacity="1" stop-color="rgb(89.456177%, 53.956604%, 34.162903%)" offset="0.753906"/><stop stop-opacity="1" stop-color="rgb(89.984131%, 54.104614%, 33.964539%)" offset="0.757812"/><stop stop-opacity="1" stop-color="rgb(90.510559%, 54.251099%, 33.766174%)" offset="0.761719"/><stop stop-opacity="1" stop-color="rgb(91.036987%, 54.399109%, 33.569336%)" offset="0.765625"/><stop stop-opacity="1" stop-color="rgb(91.563416%, 54.545593%, 33.370972%)" offset="0.769531"/><stop stop-opacity="1" stop-color="rgb(92.09137%, 54.693604%, 33.172607%)" offset="0.773438"/><stop stop-opacity="1" stop-color="rgb(92.617798%, 54.840088%, 32.974243%)" offset="0.777344"/><stop stop-opacity="1" stop-color="rgb(93.145752%, 54.986572%, 32.775879%)" offset="0.78125"/><stop stop-opacity="1" stop-color="rgb(93.67218%, 55.133057%, 32.577515%)" offset="0.785156"/><stop stop-opacity="1" stop-color="rgb(94.200134%, 55.281067%, 32.380676%)" offset="0.789062"/><stop stop-opacity="1" stop-color="rgb(94.726562%, 55.427551%, 32.182312%)" offset="0.792969"/><stop stop-opacity="1" stop-color="rgb(95.252991%, 55.575562%, 31.983948%)" offset="0.796875"/><stop stop-opacity="1" stop-color="rgb(95.779419%, 55.722046%, 31.785583%)" offset="0.800781"/><stop stop-opacity="1" stop-color="rgb(96.307373%, 55.86853%, 31.587219%)" offset="0.804688"/><stop stop-opacity="1" stop-color="rgb(96.833801%, 56.015015%, 31.388855%)" offset="0.808594"/><stop stop-opacity="1" stop-color="rgb(97.361755%, 56.163025%, 31.190491%)" offset="0.8125"/><stop stop-opacity="1" stop-color="rgb(97.888184%, 56.309509%, 30.992126%)" offset="0.816406"/><stop stop-opacity="1" stop-color="rgb(98.416138%, 56.45752%, 30.795288%)" offset="0.820312"/><stop stop-opacity="1" stop-color="rgb(98.942566%, 56.604004%, 30.596924%)" offset="0.824219"/><stop stop-opacity="1" stop-color="rgb(99.47052%, 56.752014%, 30.39856%)" offset="0.828125"/><stop stop-opacity="1" stop-color="rgb(99.734497%, 56.825256%, 30.297852%)" offset="0.832031"/><stop stop-opacity="1" stop-color="rgb(100%, 56.898499%, 30.198669%)" offset="0.835937"/><stop stop-opacity="1" stop-color="rgb(100%, 56.898499%, 30.198669%)" offset="0.84375"/><stop stop-opacity="1" stop-color="rgb(100%, 56.898499%, 30.198669%)" offset="0.875"/><stop stop-opacity="1" stop-color="rgb(100%, 56.898499%, 30.198669%)" offset="1"/></linearGradient></defs><g fill="#ffffff" fill-opacity="1"><g transform="translate(99.614381, 96.239968)"><g><path d="M 8.703125 0.3125 C 7.929688 0.3125 7.28125 0.046875 6.75 -0.484375 C 6.21875 -1.015625 5.953125 -1.671875 5.953125 -2.453125 L 5.953125 -39.96875 C 5.953125 -40.738281 6.21875 -41.398438 6.75 -41.953125 C 7.28125 -42.503906 7.929688 -42.78125 8.703125 -42.78125 L 22.6875 -42.78125 C 26.5625 -42.78125 29.722656 -42.125 32.171875 -40.8125 C 34.628906 -39.507812 36.390625 -37.835938 37.453125 -35.796875 C 38.515625 -33.753906 39.046875 -31.546875 39.046875 -29.171875 C 39.046875 -26.804688 38.515625 -24.601562 37.453125 -22.5625 C 36.390625 -20.519531 34.628906 -18.84375 32.171875 -17.53125 C 29.722656 -16.21875 26.5625 -15.5625 22.6875 -15.5625 L 11.53125 -15.5625 L 11.53125 -2.453125 C 11.53125 -1.671875 11.253906 -1.015625 10.703125 -0.484375 C 10.148438 0.046875 9.484375 0.3125 8.703125 0.3125 Z M 22.125 -20.84375 C 26.289062 -20.84375 29.222656 -21.640625 30.921875 -23.234375 C 32.617188 -24.828125 33.46875 -26.804688 33.46875 -29.171875 C 33.46875 -31.546875 32.617188 -33.53125 30.921875 -35.125 C 29.222656 -36.71875 26.289062 -37.515625 22.125 -37.515625 L 11.53125 -37.515625 L 11.53125 -20.84375 Z M 22.125 -20.84375 "/></g></g></g><g fill="#ffffff" fill-opacity="1"><g transform="translate(140.799451, 96.239968)"><g><path d="M 24.890625 0.609375 C 20.597656 0.609375 16.835938 -0.328125 13.609375 -2.203125 C 10.378906 -4.085938 7.882812 -6.679688 6.125 -9.984375 C 4.375 -13.296875 3.457031 -17.097656 3.375 -21.390625 C 3.457031 -25.679688 4.375 -29.484375 6.125 -32.796875 C 7.882812 -36.109375 10.378906 -38.703125 13.609375 -40.578125 C 16.835938 -42.453125 20.597656 -43.390625 24.890625 -43.390625 C 29.179688 -43.390625 32.929688 -42.453125 36.140625 -40.578125 C 39.347656 -38.703125 41.835938 -36.097656 43.609375 -32.765625 C 45.390625 -29.429688 46.320312 -25.640625 46.40625 -21.390625 C 46.320312 -17.140625 45.390625 -13.347656 43.609375 -10.015625 C 41.835938 -6.691406 39.347656 -4.085938 36.140625 -2.203125 C 32.929688 -0.328125 29.179688 0.609375 24.890625 0.609375 Z M 24.890625 -4.59375 C 28.160156 -4.59375 31 -5.328125 33.40625 -6.796875 C 35.8125 -8.273438 37.648438 -10.28125 38.921875 -12.8125 C 40.191406 -15.34375 40.828125 -18.203125 40.828125 -21.390625 C 40.828125 -24.578125 40.191406 -27.4375 38.921875 -29.96875 C 37.648438 -32.507812 35.8125 -34.515625 33.40625 -35.984375 C 31 -37.453125 28.160156 -38.1875 24.890625 -38.1875 C 21.578125 -38.1875 18.722656 -37.453125 16.328125 -35.984375 C 13.941406 -34.515625 12.113281 -32.507812 10.84375 -29.96875 C 9.582031 -27.4375 8.953125 -24.578125 8.953125 -21.390625 C 8.953125 -18.203125 9.582031 -15.34375 10.84375 -12.8125 C 12.113281 -10.28125 13.941406 -8.273438 16.328125 -6.796875 C 18.722656 -5.328125 21.578125 -4.59375 24.890625 -4.59375 Z M 24.890625 -4.59375 "/></g></g></g><g fill="#ffffff" fill-opacity="1"><g transform="translate(190.564741, 96.239968)"><g><path d="M 8.703125 0.3125 C 7.929688 0.3125 7.28125 0.046875 6.75 -0.484375 C 6.21875 -1.015625 5.953125 -1.671875 5.953125 -2.453125 L 5.953125 -39.96875 C 5.953125 -40.738281 6.21875 -41.398438 6.75 -41.953125 C 7.28125 -42.503906 7.929688 -42.78125 8.703125 -42.78125 L 22.984375 -42.78125 C 28.546875 -42.78125 32.710938 -41.632812 35.484375 -39.34375 C 38.265625 -37.0625 39.65625 -34.0625 39.65625 -30.34375 C 39.65625 -27.894531 38.96875 -25.65625 37.59375 -23.625 C 36.226562 -21.601562 34.238281 -20.144531 31.625 -19.25 C 34.570312 -18.46875 36.585938 -16.632812 37.671875 -13.75 C 38.753906 -10.875 39.296875 -8.046875 39.296875 -5.265625 L 39.296875 -2.453125 C 39.296875 -1.671875 39.03125 -1.015625 38.5 -0.484375 C 37.96875 0.046875 37.3125 0.3125 36.53125 0.3125 C 35.675781 0.3125 34.992188 0.0546875 34.484375 -0.453125 C 33.972656 -0.960938 33.71875 -1.628906 33.71875 -2.453125 L 33.71875 -4.296875 C 33.71875 -6.335938 33.53125 -8.222656 33.15625 -9.953125 C 32.789062 -11.691406 31.910156 -13.242188 30.515625 -14.609375 C 29.128906 -15.984375 27.03125 -16.671875 24.21875 -16.671875 L 11.53125 -16.671875 L 11.53125 -2.453125 C 11.53125 -1.671875 11.253906 -1.015625 10.703125 -0.484375 C 10.148438 0.046875 9.484375 0.3125 8.703125 0.3125 Z M 22.625 -21.9375 C 26.132812 -21.9375 28.921875 -22.628906 30.984375 -24.015625 C 33.046875 -25.410156 34.078125 -27.375 34.078125 -29.90625 C 34.078125 -32.363281 33.1875 -34.242188 31.40625 -35.546875 C 29.632812 -36.859375 26.601562 -37.515625 22.3125 -37.515625 L 11.53125 -37.515625 L 11.53125 -21.9375 Z M 22.625 -21.9375 "/></g></g></g><g fill="#ffffff" fill-opacity="1"><g transform="translate(234.201289, 96.239968)"><g><path d="M 18.640625 0.3125 C 17.859375 0.3125 17.203125 0.046875 16.671875 -0.484375 C 16.140625 -1.015625 15.875 -1.671875 15.875 -2.453125 L 15.875 -37.578125 L 3.375 -37.578125 C 2.632812 -37.578125 2.019531 -37.820312 1.53125 -38.3125 C 1.039062 -38.800781 0.796875 -39.414062 0.796875 -40.15625 C 0.796875 -40.882812 1.039062 -41.503906 1.53125 -42.015625 C 2.019531 -42.523438 2.632812 -42.78125 3.375 -42.78125 L 33.890625 -42.78125 C 34.628906 -42.78125 35.253906 -42.523438 35.765625 -42.015625 C 36.273438 -41.503906 36.53125 -40.882812 36.53125 -40.15625 C 36.53125 -39.414062 36.273438 -38.800781 35.765625 -38.3125 C 35.253906 -37.820312 34.628906 -37.578125 33.890625 -37.578125 L 21.453125 -37.578125 L 21.453125 -2.453125 C 21.453125 -1.671875 21.175781 -1.015625 20.625 -0.484375 C 20.070312 0.046875 19.410156 0.3125 18.640625 0.3125 Z M 18.640625 0.3125 "/></g></g></g><g fill="#ffffff" fill-opacity="1"><g transform="translate(271.525257, 96.239968)"><g><path d="M 5.828125 0.3125 C 5.003906 0.3125 4.335938 0.046875 3.828125 -0.484375 C 3.316406 -1.015625 3.0625 -1.671875 3.0625 -2.453125 C 3.0625 -2.773438 3.164062 -3.179688 3.375 -3.671875 L 19 -40.578125 C 19.332031 -41.316406 19.789062 -41.921875 20.375 -42.390625 C 20.96875 -42.859375 21.695312 -43.09375 22.5625 -43.09375 L 23.171875 -43.09375 C 24.023438 -43.09375 24.75 -42.859375 25.34375 -42.390625 C 25.9375 -41.921875 26.394531 -41.316406 26.71875 -40.578125 L 42.359375 -3.671875 C 42.554688 -3.179688 42.65625 -2.773438 42.65625 -2.453125 C 42.65625 -1.671875 42.398438 -1.015625 41.890625 -0.484375 C 41.378906 0.046875 40.71875 0.3125 39.90625 0.3125 C 39.332031 0.3125 38.8125 0.160156 38.34375 -0.140625 C 37.875 -0.453125 37.515625 -0.875 37.265625 -1.40625 L 33.28125 -10.96875 L 12.4375 -10.96875 L 8.453125 -1.40625 C 8.210938 -0.875 7.859375 -0.453125 7.390625 -0.140625 C 6.921875 0.160156 6.398438 0.3125 5.828125 0.3125 Z M 14.59375 -16.0625 L 31.140625 -16.0625 L 22.859375 -35.984375 Z M 14.59375 -16.0625 "/></g></g></g><g fill="#ffffff" fill-opacity="1"><g transform="translate(317.245575, 96.239968)"><g><path d="M 9.8125 0 C 8.75 0 7.835938 -0.375 7.078125 -1.125 C 6.328125 -1.882812 5.953125 -2.796875 5.953125 -3.859375 L 5.953125 -40.265625 C 5.953125 -41.046875 6.21875 -41.710938 6.75 -42.265625 C 7.28125 -42.816406 7.929688 -43.09375 8.703125 -43.09375 C 9.484375 -43.09375 10.148438 -42.816406 10.703125 -42.265625 C 11.253906 -41.710938 11.53125 -41.046875 11.53125 -40.265625 L 11.53125 -5.578125 L 31.5625 -5.578125 C 32.34375 -5.578125 33.007812 -5.300781 33.5625 -4.75 C 34.113281 -4.195312 34.390625 -3.535156 34.390625 -2.765625 C 34.390625 -1.984375 34.113281 -1.328125 33.5625 -0.796875 C 33.007812 -0.265625 32.34375 0 31.5625 0 Z M 9.8125 0 "/></g></g></g><g clip-path="url(#d7ab706d13)"><g clip-path="url(#320e490b51)"><path fill="#ff914d" d="M 361.144531 86.875 L 374.40625 86.875 L 374.40625 100.136719 L 361.144531 100.136719 Z M 361.144531 86.875 " fill-opacity="1" fill-rule="nonzero"/></g></g><g clip-path="url(#97ff6a9698)"><g clip-path="url(#0688adfc42)"><path fill="url(#96ca5fedf2)" d="M 0.601562 37.082031 L 0.601562 119.914062 L 79.527344 119.914062 L 79.527344 37.082031 Z M 0.601562 37.082031 " fill-rule="nonzero"/></g></g></svg>