<svg xmlns="http://www.w3.org/2000/svg" xmlns:xlink="http://www.w3.org/1999/xlink" width="500" zoomAndPan="magnify" viewBox="0 0 375 157.5" height="210" preserveAspectRatio="xMidYMid meet" version="1.0"><defs><g/><clipPath id="150519fe26"><path d="M 360.703125 87.617188 L 374.40625 87.617188 L 374.40625 101.320312 L 360.703125 101.320312 Z M 360.703125 87.617188 " clip-rule="nonzero"/></clipPath><clipPath id="d19284df63"><path d="M 367.554688 87.617188 C 363.769531 87.617188 360.703125 90.683594 360.703125 94.46875 C 360.703125 98.25 363.769531 101.320312 367.554688 101.320312 C 371.339844 101.320312 374.40625 98.25 374.40625 94.46875 C 374.40625 90.683594 371.339844 87.617188 367.554688 87.617188 Z M 367.554688 87.617188 " clip-rule="nonzero"/></clipPath><clipPath id="fa41bdf720"><path d="M 0.59375 35.703125 L 82 35.703125 L 82 120.933594 L 0.59375 120.933594 Z M 0.59375 35.703125 " clip-rule="nonzero"/></clipPath><clipPath id="24777f1e82"><path d="M 47.4375 75.578125 L 11.039062 75.578125 C 9.628906 75.578125 8.605469 74.230469 8.988281 72.871094 L 18.980469 37.257812 C 19.238281 36.339844 20.078125 35.703125 21.03125 35.703125 L 57.433594 35.703125 C 58.84375 35.703125 59.867188 37.050781 59.484375 38.410156 L 49.492188 74.023438 C 49.234375 74.945312 48.394531 75.578125 47.4375 75.578125 Z M 23.796875 102.460938 L 28.941406 84.125 C 29.324219 82.765625 28.300781 81.417969 26.890625 81.417969 L 8.179688 81.417969 C 7.222656 81.417969 6.386719 82.054688 6.128906 82.972656 L 0.980469 101.308594 C 0.601562 102.667969 1.621094 104.015625 3.035156 104.015625 L 21.746094 104.015625 C 22.699219 104.015625 23.539062 103.382812 23.796875 102.460938 Z M 33.265625 82.972656 L 23.273438 118.585938 C 22.890625 119.945312 23.914062 121.292969 25.324219 121.292969 L 61.722656 121.292969 C 62.679688 121.292969 63.519531 120.65625 63.777344 119.738281 L 73.769531 84.125 C 74.152344 82.765625 73.128906 81.417969 71.71875 81.417969 L 35.316406 81.417969 C 34.363281 81.417969 33.523438 82.054688 33.265625 82.972656 Z M 58.960938 54.535156 L 53.8125 72.871094 C 53.433594 74.230469 54.453125 75.578125 55.867188 75.578125 L 74.578125 75.578125 C 75.53125 75.578125 76.371094 74.945312 76.628906 74.023438 L 81.773438 55.6875 C 82.15625 54.328125 81.132812 52.980469 79.722656 52.980469 L 61.011719 52.980469 C 60.054688 52.980469 59.21875 53.617188 58.960938 54.535156 Z M 58.960938 54.535156 " clip-rule="nonzero"/></clipPath><linearGradient x1="114.296446" gradientTransform="matrix(0.171179, 0, 0, 0.171179, 0.901477, 35.703403)" y1="-47.633961" x2="357.820633" gradientUnits="userSpaceOnUse" y2="545.681954" id="1c07dddbd7"><stop stop-opacity="1" stop-color="rgb(0%, 28.999329%, 67.799377%)" offset="0"/><stop stop-opacity="1" stop-color="rgb(0%, 28.999329%, 67.799377%)" offset="0.0625"/><stop stop-opacity="1" stop-color="rgb(0.17395%, 29.048157%, 67.733765%)" offset="0.09375"/><stop stop-opacity="1" stop-color="rgb(0.872803%, 29.243469%, 67.469788%)" offset="0.0976562"/><stop stop-opacity="1" stop-color="rgb(1.399231%, 29.389954%, 67.272949%)" offset="0.101562"/><stop stop-opacity="1" stop-color="rgb(1.924133%, 29.536438%, 67.074585%)" offset="0.105469"/><stop stop-opacity="1" stop-color="rgb(2.449036%, 29.682922%, 66.877747%)" offset="0.109375"/><stop stop-opacity="1" stop-color="rgb(2.973938%, 29.829407%, 66.679382%)" offset="0.113281"/><stop stop-opacity="1" stop-color="rgb(3.500366%, 29.975891%, 66.482544%)" offset="0.117188"/><stop stop-opacity="1" stop-color="rgb(4.025269%, 30.122375%, 66.28418%)" offset="0.121094"/><stop stop-opacity="1" stop-color="rgb(4.550171%, 30.26886%, 66.087341%)" offset="0.125"/><stop stop-opacity="1" stop-color="rgb(5.075073%, 30.415344%, 65.890503%)" offset="0.128906"/><stop stop-opacity="1" stop-color="rgb(5.601501%, 30.561829%, 65.693665%)" offset="0.132812"/><stop stop-opacity="1" stop-color="rgb(6.126404%, 30.708313%, 65.4953%)" offset="0.136719"/><stop stop-opacity="1" stop-color="rgb(6.651306%, 30.854797%, 65.298462%)" offset="0.140625"/><stop stop-opacity="1" stop-color="rgb(7.176208%, 31.001282%, 65.100098%)" offset="0.144531"/><stop stop-opacity="1" stop-color="rgb(7.702637%, 31.147766%, 64.903259%)" offset="0.148437"/><stop stop-opacity="1" stop-color="rgb(8.227539%, 31.29425%, 64.704895%)" offset="0.152344"/><stop stop-opacity="1" stop-color="rgb(8.752441%, 31.440735%, 64.508057%)" offset="0.15625"/><stop stop-opacity="1" stop-color="rgb(9.277344%, 31.587219%, 64.309692%)" offset="0.160156"/><stop stop-opacity="1" stop-color="rgb(9.803772%, 31.735229%, 64.112854%)" offset="0.164062"/><stop stop-opacity="1" stop-color="rgb(10.328674%, 31.881714%, 63.91449%)" offset="0.167969"/><stop stop-opacity="1" stop-color="rgb(10.853577%, 32.028198%, 63.717651%)" offset="0.171875"/><stop stop-opacity="1" stop-color="rgb(11.378479%, 32.174683%, 63.519287%)" offset="0.175781"/><stop stop-opacity="1" stop-color="rgb(11.904907%, 32.321167%, 63.322449%)" offset="0.179688"/><stop stop-opacity="1" stop-color="rgb(12.42981%, 32.467651%, 63.124084%)" offset="0.183594"/><stop stop-opacity="1" stop-color="rgb(12.954712%, 32.614136%, 62.927246%)" offset="0.1875"/><stop stop-opacity="1" stop-color="rgb(13.479614%, 32.76062%, 62.728882%)" offset="0.191406"/><stop stop-opacity="1" stop-color="rgb(14.006042%, 32.907104%, 62.532043%)" offset="0.195312"/><stop stop-opacity="1" stop-color="rgb(14.530945%, 33.053589%, 62.335205%)" offset="0.199219"/><stop stop-opacity="1" stop-color="rgb(15.055847%, 33.200073%, 62.138367%)" offset="0.203125"/><stop stop-opacity="1" stop-color="rgb(15.58075%, 33.346558%, 61.940002%)" offset="0.207031"/><stop stop-opacity="1" stop-color="rgb(16.107178%, 33.493042%, 61.743164%)" offset="0.210937"/><stop stop-opacity="1" stop-color="rgb(16.63208%, 33.639526%, 61.5448%)" offset="0.214844"/><stop stop-opacity="1" stop-color="rgb(17.156982%, 33.786011%, 61.347961%)" offset="0.21875"/><stop stop-opacity="1" stop-color="rgb(17.681885%, 33.932495%, 61.149597%)" offset="0.222656"/><stop stop-opacity="1" stop-color="rgb(18.208313%, 34.078979%, 60.952759%)" offset="0.226562"/><stop stop-opacity="1" stop-color="rgb(18.733215%, 34.225464%, 60.754395%)" offset="0.230469"/><stop stop-opacity="1" stop-color="rgb(19.258118%, 34.371948%, 60.557556%)" offset="0.234375"/><stop stop-opacity="1" stop-color="rgb(19.78302%, 34.518433%, 60.359192%)" offset="0.238281"/><stop stop-opacity="1" stop-color="rgb(20.309448%, 34.666443%, 60.162354%)" offset="0.242187"/><stop stop-opacity="1" stop-color="rgb(20.834351%, 34.812927%, 59.963989%)" offset="0.246094"/><stop stop-opacity="1" stop-color="rgb(21.359253%, 34.959412%, 59.767151%)" offset="0.25"/><stop stop-opacity="1" stop-color="rgb(21.884155%, 35.105896%, 59.568787%)" offset="0.253906"/><stop stop-opacity="1" stop-color="rgb(22.410583%, 35.25238%, 59.371948%)" offset="0.257812"/><stop stop-opacity="1" stop-color="rgb(22.935486%, 35.398865%, 59.17511%)" offset="0.261719"/><stop stop-opacity="1" stop-color="rgb(23.460388%, 35.545349%, 58.978271%)" offset="0.265625"/><stop stop-opacity="1" stop-color="rgb(23.985291%, 35.691833%, 58.779907%)" offset="0.269531"/><stop stop-opacity="1" stop-color="rgb(24.511719%, 35.838318%, 58.583069%)" offset="0.273438"/><stop stop-opacity="1" stop-color="rgb(25.036621%, 35.984802%, 58.384705%)" offset="0.277344"/><stop stop-opacity="1" stop-color="rgb(25.561523%, 36.131287%, 58.187866%)" offset="0.28125"/><stop stop-opacity="1" stop-color="rgb(26.086426%, 36.277771%, 57.989502%)" offset="0.285156"/><stop stop-opacity="1" stop-color="rgb(26.612854%, 36.424255%, 57.792664%)" offset="0.289062"/><stop stop-opacity="1" stop-color="rgb(27.137756%, 36.57074%, 57.594299%)" offset="0.292969"/><stop stop-opacity="1" stop-color="rgb(27.664185%, 36.717224%, 57.397461%)" offset="0.296875"/><stop stop-opacity="1" stop-color="rgb(28.189087%, 36.863708%, 57.199097%)" offset="0.300781"/><stop stop-opacity="1" stop-color="rgb(28.713989%, 37.010193%, 57.002258%)" offset="0.304688"/><stop stop-opacity="1" stop-color="rgb(29.238892%, 37.156677%, 56.803894%)" offset="0.308594"/><stop stop-opacity="1" stop-color="rgb(29.76532%, 37.303162%, 56.607056%)" offset="0.3125"/><stop stop-opacity="1" stop-color="rgb(30.290222%, 37.449646%, 56.408691%)" offset="0.316406"/><stop stop-opacity="1" stop-color="rgb(30.815125%, 37.59613%, 56.211853%)" offset="0.320312"/><stop stop-opacity="1" stop-color="rgb(31.340027%, 37.742615%, 56.015015%)" offset="0.324219"/><stop stop-opacity="1" stop-color="rgb(31.866455%, 37.890625%, 55.818176%)" offset="0.328125"/><stop stop-opacity="1" stop-color="rgb(32.391357%, 38.037109%, 55.619812%)" offset="0.332031"/><stop stop-opacity="1" stop-color="rgb(32.91626%, 38.183594%, 55.422974%)" offset="0.335938"/><stop stop-opacity="1" stop-color="rgb(33.441162%, 38.330078%, 55.224609%)" offset="0.339844"/><stop stop-opacity="1" stop-color="rgb(33.96759%, 38.476562%, 55.027771%)" offset="0.34375"/><stop stop-opacity="1" stop-color="rgb(34.492493%, 38.623047%, 54.829407%)" offset="0.347656"/><stop stop-opacity="1" stop-color="rgb(35.017395%, 38.769531%, 54.632568%)" offset="0.351562"/><stop stop-opacity="1" stop-color="rgb(35.542297%, 38.916016%, 54.434204%)" offset="0.355469"/><stop stop-opacity="1" stop-color="rgb(36.068726%, 39.0625%, 54.237366%)" offset="0.359375"/><stop stop-opacity="1" stop-color="rgb(36.593628%, 39.208984%, 54.039001%)" offset="0.363281"/><stop stop-opacity="1" stop-color="rgb(37.11853%, 39.355469%, 53.842163%)" offset="0.367188"/><stop stop-opacity="1" stop-color="rgb(37.643433%, 39.501953%, 53.643799%)" offset="0.371094"/><stop stop-opacity="1" stop-color="rgb(38.169861%, 39.648438%, 53.44696%)" offset="0.375"/><stop stop-opacity="1" stop-color="rgb(38.694763%, 39.794922%, 53.248596%)" offset="0.378906"/><stop stop-opacity="1" stop-color="rgb(39.219666%, 39.941406%, 53.051758%)" offset="0.382812"/><stop stop-opacity="1" stop-color="rgb(39.744568%, 40.087891%, 52.853394%)" offset="0.386719"/><stop stop-opacity="1" stop-color="rgb(40.270996%, 40.234375%, 52.656555%)" offset="0.390625"/><stop stop-opacity="1" stop-color="rgb(40.795898%, 40.380859%, 52.459717%)" offset="0.394531"/><stop stop-opacity="1" stop-color="rgb(41.320801%, 40.527344%, 52.262878%)" offset="0.398438"/><stop stop-opacity="1" stop-color="rgb(41.845703%, 40.673828%, 52.064514%)" offset="0.402344"/><stop stop-opacity="1" stop-color="rgb(42.372131%, 40.821838%, 51.867676%)" offset="0.40625"/><stop stop-opacity="1" stop-color="rgb(42.897034%, 40.968323%, 51.669312%)" offset="0.410156"/><stop stop-opacity="1" stop-color="rgb(43.421936%, 41.114807%, 51.472473%)" offset="0.414062"/><stop stop-opacity="1" stop-color="rgb(43.946838%, 41.261292%, 51.274109%)" offset="0.417969"/><stop stop-opacity="1" stop-color="rgb(44.473267%, 41.407776%, 51.077271%)" offset="0.421875"/><stop stop-opacity="1" stop-color="rgb(44.998169%, 41.55426%, 50.878906%)" offset="0.425781"/><stop stop-opacity="1" stop-color="rgb(45.523071%, 41.700745%, 50.682068%)" offset="0.429688"/><stop stop-opacity="1" stop-color="rgb(46.047974%, 41.847229%, 50.483704%)" offset="0.433594"/><stop stop-opacity="1" stop-color="rgb(46.574402%, 41.993713%, 50.286865%)" offset="0.4375"/><stop stop-opacity="1" stop-color="rgb(47.099304%, 42.140198%, 50.088501%)" offset="0.441406"/><stop stop-opacity="1" stop-color="rgb(47.624207%, 42.286682%, 49.891663%)" offset="0.445312"/><stop stop-opacity="1" stop-color="rgb(48.149109%, 42.433167%, 49.693298%)" offset="0.449219"/><stop stop-opacity="1" stop-color="rgb(48.675537%, 42.579651%, 49.49646%)" offset="0.453125"/><stop stop-opacity="1" stop-color="rgb(49.200439%, 42.726135%, 49.299622%)" offset="0.457031"/><stop stop-opacity="1" stop-color="rgb(49.725342%, 42.87262%, 49.102783%)" offset="0.460937"/><stop stop-opacity="1" stop-color="rgb(50.250244%, 43.019104%, 48.904419%)" offset="0.464844"/><stop stop-opacity="1" stop-color="rgb(50.776672%, 43.165588%, 48.707581%)" offset="0.46875"/><stop stop-opacity="1" stop-color="rgb(51.301575%, 43.312073%, 48.509216%)" offset="0.472656"/><stop stop-opacity="1" stop-color="rgb(51.826477%, 43.458557%, 48.312378%)" offset="0.476562"/><stop stop-opacity="1" stop-color="rgb(52.351379%, 43.605042%, 48.114014%)" offset="0.480469"/><stop stop-opacity="1" stop-color="rgb(52.877808%, 43.751526%, 47.917175%)" offset="0.484375"/><stop stop-opacity="1" stop-color="rgb(53.40271%, 43.89801%, 47.718811%)" offset="0.488281"/><stop stop-opacity="1" stop-color="rgb(53.927612%, 44.046021%, 47.521973%)" offset="0.492187"/><stop stop-opacity="1" stop-color="rgb(54.452515%, 44.192505%, 47.323608%)" offset="0.496094"/><stop stop-opacity="1" stop-color="rgb(54.978943%, 44.338989%, 47.12677%)" offset="0.5"/><stop stop-opacity="1" stop-color="rgb(55.503845%, 44.485474%, 46.928406%)" offset="0.503906"/><stop stop-opacity="1" stop-color="rgb(56.028748%, 44.631958%, 46.731567%)" offset="0.507813"/><stop stop-opacity="1" stop-color="rgb(56.55365%, 44.778442%, 46.533203%)" offset="0.511719"/><stop stop-opacity="1" stop-color="rgb(57.080078%, 44.924927%, 46.336365%)" offset="0.515625"/><stop stop-opacity="1" stop-color="rgb(57.60498%, 45.071411%, 46.138%)" offset="0.519531"/><stop stop-opacity="1" stop-color="rgb(58.129883%, 45.217896%, 45.941162%)" offset="0.523438"/><stop stop-opacity="1" stop-color="rgb(58.654785%, 45.36438%, 45.744324%)" offset="0.527344"/><stop stop-opacity="1" stop-color="rgb(59.181213%, 45.510864%, 45.547485%)" offset="0.53125"/><stop stop-opacity="1" stop-color="rgb(59.706116%, 45.657349%, 45.349121%)" offset="0.535156"/><stop stop-opacity="1" stop-color="rgb(60.231018%, 45.803833%, 45.152283%)" offset="0.539062"/><stop stop-opacity="1" stop-color="rgb(60.75592%, 45.950317%, 44.953918%)" offset="0.542969"/><stop stop-opacity="1" stop-color="rgb(61.282349%, 46.096802%, 44.75708%)" offset="0.546875"/><stop stop-opacity="1" stop-color="rgb(61.807251%, 46.243286%, 44.558716%)" offset="0.550781"/><stop stop-opacity="1" stop-color="rgb(62.332153%, 46.389771%, 44.361877%)" offset="0.554688"/><stop stop-opacity="1" stop-color="rgb(62.857056%, 46.536255%, 44.163513%)" offset="0.558594"/><stop stop-opacity="1" stop-color="rgb(63.383484%, 46.682739%, 43.966675%)" offset="0.5625"/><stop stop-opacity="1" stop-color="rgb(63.908386%, 46.829224%, 43.768311%)" offset="0.566406"/><stop stop-opacity="1" stop-color="rgb(64.433289%, 46.977234%, 43.571472%)" offset="0.570312"/><stop stop-opacity="1" stop-color="rgb(64.958191%, 47.123718%, 43.373108%)" offset="0.574219"/><stop stop-opacity="1" stop-color="rgb(65.484619%, 47.270203%, 43.17627%)" offset="0.578125"/><stop stop-opacity="1" stop-color="rgb(66.009521%, 47.416687%, 42.977905%)" offset="0.582031"/><stop stop-opacity="1" stop-color="rgb(66.534424%, 47.563171%, 42.781067%)" offset="0.585938"/><stop stop-opacity="1" stop-color="rgb(67.059326%, 47.709656%, 42.584229%)" offset="0.589844"/><stop stop-opacity="1" stop-color="rgb(67.585754%, 47.85614%, 42.38739%)" offset="0.59375"/><stop stop-opacity="1" stop-color="rgb(68.110657%, 48.002625%, 42.189026%)" offset="0.597656"/><stop stop-opacity="1" stop-color="rgb(68.637085%, 48.149109%, 41.992188%)" offset="0.601563"/><stop stop-opacity="1" stop-color="rgb(69.161987%, 48.295593%, 41.793823%)" offset="0.605469"/><stop stop-opacity="1" stop-color="rgb(69.68689%, 48.442078%, 41.596985%)" offset="0.609375"/><stop stop-opacity="1" stop-color="rgb(70.211792%, 48.588562%, 41.398621%)" offset="0.613281"/><stop stop-opacity="1" stop-color="rgb(70.73822%, 48.735046%, 41.201782%)" offset="0.617188"/><stop stop-opacity="1" stop-color="rgb(71.263123%, 48.881531%, 41.003418%)" offset="0.621094"/><stop stop-opacity="1" stop-color="rgb(71.788025%, 49.028015%, 40.80658%)" offset="0.625"/><stop stop-opacity="1" stop-color="rgb(72.312927%, 49.1745%, 40.608215%)" offset="0.628906"/><stop stop-opacity="1" stop-color="rgb(72.839355%, 49.320984%, 40.411377%)" offset="0.632812"/><stop stop-opacity="1" stop-color="rgb(73.364258%, 49.467468%, 40.213013%)" offset="0.636719"/><stop stop-opacity="1" stop-color="rgb(73.88916%, 49.613953%, 40.016174%)" offset="0.640625"/><stop stop-opacity="1" stop-color="rgb(74.414062%, 49.760437%, 39.81781%)" offset="0.644531"/><stop stop-opacity="1" stop-color="rgb(74.940491%, 49.906921%, 39.620972%)" offset="0.648438"/><stop stop-opacity="1" stop-color="rgb(75.465393%, 50.053406%, 39.424133%)" offset="0.652344"/><stop stop-opacity="1" stop-color="rgb(75.990295%, 50.201416%, 39.227295%)" offset="0.65625"/><stop stop-opacity="1" stop-color="rgb(76.515198%, 50.3479%, 39.028931%)" offset="0.660156"/><stop stop-opacity="1" stop-color="rgb(77.041626%, 50.494385%, 38.832092%)" offset="0.664062"/><stop stop-opacity="1" stop-color="rgb(77.566528%, 50.640869%, 38.633728%)" offset="0.667969"/><stop stop-opacity="1" stop-color="rgb(78.091431%, 50.787354%, 38.43689%)" offset="0.671875"/><stop stop-opacity="1" stop-color="rgb(78.616333%, 50.933838%, 38.238525%)" offset="0.675781"/><stop stop-opacity="1" stop-color="rgb(79.142761%, 51.080322%, 38.041687%)" offset="0.679688"/><stop stop-opacity="1" stop-color="rgb(79.667664%, 51.226807%, 37.843323%)" offset="0.683594"/><stop stop-opacity="1" stop-color="rgb(80.192566%, 51.373291%, 37.646484%)" offset="0.6875"/><stop stop-opacity="1" stop-color="rgb(80.717468%, 51.519775%, 37.44812%)" offset="0.691406"/><stop stop-opacity="1" stop-color="rgb(81.243896%, 51.66626%, 37.251282%)" offset="0.695313"/><stop stop-opacity="1" stop-color="rgb(81.768799%, 51.812744%, 37.052917%)" offset="0.699219"/><stop stop-opacity="1" stop-color="rgb(82.293701%, 51.959229%, 36.856079%)" offset="0.703125"/><stop stop-opacity="1" stop-color="rgb(82.818604%, 52.105713%, 36.657715%)" offset="0.707031"/><stop stop-opacity="1" stop-color="rgb(83.345032%, 52.252197%, 36.460876%)" offset="0.710938"/><stop stop-opacity="1" stop-color="rgb(83.869934%, 52.398682%, 36.262512%)" offset="0.714844"/><stop stop-opacity="1" stop-color="rgb(84.394836%, 52.545166%, 36.065674%)" offset="0.71875"/><stop stop-opacity="1" stop-color="rgb(84.919739%, 52.69165%, 35.868835%)" offset="0.722656"/><stop stop-opacity="1" stop-color="rgb(85.446167%, 52.838135%, 35.671997%)" offset="0.726562"/><stop stop-opacity="1" stop-color="rgb(85.971069%, 52.984619%, 35.473633%)" offset="0.730469"/><stop stop-opacity="1" stop-color="rgb(86.495972%, 53.132629%, 35.276794%)" offset="0.734375"/><stop stop-opacity="1" stop-color="rgb(87.020874%, 53.279114%, 35.07843%)" offset="0.738281"/><stop stop-opacity="1" stop-color="rgb(87.547302%, 53.425598%, 34.881592%)" offset="0.742188"/><stop stop-opacity="1" stop-color="rgb(88.072205%, 53.572083%, 34.683228%)" offset="0.746094"/><stop stop-opacity="1" stop-color="rgb(88.597107%, 53.718567%, 34.486389%)" offset="0.75"/><stop stop-opacity="1" stop-color="rgb(89.122009%, 53.865051%, 34.288025%)" offset="0.753906"/><stop stop-opacity="1" stop-color="rgb(89.648438%, 54.011536%, 34.091187%)" offset="0.757812"/><stop stop-opacity="1" stop-color="rgb(90.17334%, 54.15802%, 33.892822%)" offset="0.761719"/><stop stop-opacity="1" stop-color="rgb(90.698242%, 54.304504%, 33.695984%)" offset="0.765625"/><stop stop-opacity="1" stop-color="rgb(91.223145%, 54.450989%, 33.49762%)" offset="0.769531"/><stop stop-opacity="1" stop-color="rgb(91.749573%, 54.597473%, 33.300781%)" offset="0.773438"/><stop stop-opacity="1" stop-color="rgb(92.274475%, 54.743958%, 33.102417%)" offset="0.777344"/><stop stop-opacity="1" stop-color="rgb(92.799377%, 54.890442%, 32.905579%)" offset="0.78125"/><stop stop-opacity="1" stop-color="rgb(93.32428%, 55.036926%, 32.70874%)" offset="0.785156"/><stop stop-opacity="1" stop-color="rgb(93.850708%, 55.183411%, 32.511902%)" offset="0.789063"/><stop stop-opacity="1" stop-color="rgb(94.37561%, 55.329895%, 32.313538%)" offset="0.792969"/><stop stop-opacity="1" stop-color="rgb(94.900513%, 55.476379%, 32.116699%)" offset="0.796875"/><stop stop-opacity="1" stop-color="rgb(95.425415%, 55.622864%, 31.918335%)" offset="0.800781"/><stop stop-opacity="1" stop-color="rgb(95.951843%, 55.769348%, 31.721497%)" offset="0.804688"/><stop stop-opacity="1" stop-color="rgb(96.476746%, 55.915833%, 31.523132%)" offset="0.808594"/><stop stop-opacity="1" stop-color="rgb(97.001648%, 56.062317%, 31.326294%)" offset="0.8125"/><stop stop-opacity="1" stop-color="rgb(97.52655%, 56.208801%, 31.12793%)" offset="0.816406"/><stop stop-opacity="1" stop-color="rgb(98.052979%, 56.356812%, 30.931091%)" offset="0.820312"/><stop stop-opacity="1" stop-color="rgb(98.577881%, 56.503296%, 30.732727%)" offset="0.824219"/><stop stop-opacity="1" stop-color="rgb(99.102783%, 56.64978%, 30.535889%)" offset="0.828125"/><stop stop-opacity="1" stop-color="rgb(99.551392%, 56.773376%, 30.366516%)" offset="0.832031"/><stop stop-opacity="1" stop-color="rgb(100%, 56.898499%, 30.198669%)" offset="0.835937"/><stop stop-opacity="1" stop-color="rgb(100%, 56.898499%, 30.198669%)" offset="0.84375"/><stop stop-opacity="1" stop-color="rgb(100%, 56.898499%, 30.198669%)" offset="0.875"/><stop stop-opacity="1" stop-color="rgb(100%, 56.898499%, 30.198669%)" offset="1"/></linearGradient></defs><g fill="#000000" fill-opacity="1"><g transform="translate(90.479114, 97.292664)"><g><path d="M 9 0.3125 C 8.195312 0.3125 7.519531 0.0390625 6.96875 -0.5 C 6.414062 -1.050781 6.140625 -1.726562 6.140625 -2.53125 L 6.140625 -41.296875 C 6.140625 -42.097656 6.414062 -42.785156 6.96875 -43.359375 C 7.519531 -43.929688 8.195312 -44.21875 9 -44.21875 L 23.4375 -44.21875 C 27.445312 -44.21875 30.71875 -43.539062 33.25 -42.1875 C 35.789062 -40.832031 37.609375 -39.097656 38.703125 -36.984375 C 39.796875 -34.878906 40.34375 -32.601562 40.34375 -30.15625 C 40.34375 -27.707031 39.796875 -25.425781 38.703125 -23.3125 C 37.609375 -21.195312 35.789062 -19.460938 33.25 -18.109375 C 30.71875 -16.765625 27.445312 -16.09375 23.4375 -16.09375 L 11.90625 -16.09375 L 11.90625 -2.53125 C 11.90625 -1.726562 11.617188 -1.050781 11.046875 -0.5 C 10.484375 0.0390625 9.800781 0.3125 9 0.3125 Z M 22.859375 -21.53125 C 27.171875 -21.53125 30.203125 -22.351562 31.953125 -24 C 33.703125 -25.65625 34.578125 -27.707031 34.578125 -30.15625 C 34.578125 -32.601562 33.703125 -34.648438 31.953125 -36.296875 C 30.203125 -37.941406 27.171875 -38.765625 22.859375 -38.765625 L 11.90625 -38.765625 L 11.90625 -21.53125 Z M 22.859375 -21.53125 "/></g></g></g><g fill="#000000" fill-opacity="1"><g transform="translate(133.033353, 97.292664)"><g><path d="M 25.71875 0.640625 C 21.28125 0.640625 17.394531 -0.328125 14.0625 -2.265625 C 10.726562 -4.210938 8.148438 -6.894531 6.328125 -10.3125 C 4.515625 -13.738281 3.566406 -17.671875 3.484375 -22.109375 C 3.566406 -26.546875 4.515625 -30.472656 6.328125 -33.890625 C 8.148438 -37.304688 10.726562 -39.984375 14.0625 -41.921875 C 17.394531 -43.867188 21.28125 -44.84375 25.71875 -44.84375 C 30.15625 -44.84375 34.03125 -43.867188 37.34375 -41.921875 C 40.65625 -39.984375 43.226562 -37.289062 45.0625 -33.84375 C 46.90625 -30.40625 47.867188 -26.492188 47.953125 -22.109375 C 47.867188 -17.710938 46.90625 -13.789062 45.0625 -10.34375 C 43.226562 -6.90625 40.65625 -4.210938 37.34375 -2.265625 C 34.03125 -0.328125 30.15625 0.640625 25.71875 0.640625 Z M 25.71875 -4.75 C 29.09375 -4.75 32.023438 -5.507812 34.515625 -7.03125 C 37.015625 -8.550781 38.914062 -10.617188 40.21875 -13.234375 C 41.53125 -15.859375 42.1875 -18.816406 42.1875 -22.109375 C 42.1875 -25.398438 41.53125 -28.351562 40.21875 -30.96875 C 38.914062 -33.59375 37.015625 -35.664062 34.515625 -37.1875 C 32.023438 -38.707031 29.09375 -39.46875 25.71875 -39.46875 C 22.300781 -39.46875 19.351562 -38.707031 16.875 -37.1875 C 14.40625 -35.664062 12.515625 -33.59375 11.203125 -30.96875 C 9.898438 -28.351562 9.25 -25.398438 9.25 -22.109375 C 9.25 -18.816406 9.898438 -15.859375 11.203125 -13.234375 C 12.515625 -10.617188 14.40625 -8.550781 16.875 -7.03125 C 19.351562 -5.507812 22.300781 -4.75 25.71875 -4.75 Z M 25.71875 -4.75 "/></g></g></g><g fill="#000000" fill-opacity="1"><g transform="translate(184.453056, 97.292664)"><g><path d="M 9 0.3125 C 8.195312 0.3125 7.519531 0.0390625 6.96875 -0.5 C 6.414062 -1.050781 6.140625 -1.726562 6.140625 -2.53125 L 6.140625 -41.296875 C 6.140625 -42.097656 6.414062 -42.785156 6.96875 -43.359375 C 7.519531 -43.929688 8.195312 -44.21875 9 -44.21875 L 23.75 -44.21875 C 29.5 -44.21875 33.804688 -43.035156 36.671875 -40.671875 C 39.546875 -38.304688 40.984375 -35.203125 40.984375 -31.359375 C 40.984375 -28.816406 40.273438 -26.5 38.859375 -24.40625 C 37.441406 -22.320312 35.382812 -20.816406 32.6875 -19.890625 C 35.726562 -19.085938 37.804688 -17.195312 38.921875 -14.21875 C 40.046875 -11.238281 40.609375 -8.316406 40.609375 -5.453125 L 40.609375 -2.53125 C 40.609375 -1.726562 40.332031 -1.050781 39.78125 -0.5 C 39.226562 0.0390625 38.550781 0.3125 37.75 0.3125 C 36.863281 0.3125 36.15625 0.0507812 35.625 -0.46875 C 35.101562 -1 34.84375 -1.6875 34.84375 -2.53125 L 34.84375 -4.4375 C 34.84375 -6.539062 34.648438 -8.488281 34.265625 -10.28125 C 33.890625 -12.082031 32.984375 -13.691406 31.546875 -15.109375 C 30.109375 -16.523438 27.929688 -17.234375 25.015625 -17.234375 L 11.90625 -17.234375 L 11.90625 -2.53125 C 11.90625 -1.726562 11.617188 -1.050781 11.046875 -0.5 C 10.484375 0.0390625 9.800781 0.3125 9 0.3125 Z M 23.375 -22.671875 C 27.007812 -22.671875 29.890625 -23.390625 32.015625 -24.828125 C 34.148438 -26.265625 35.21875 -28.289062 35.21875 -30.90625 C 35.21875 -33.445312 34.296875 -35.390625 32.453125 -36.734375 C 30.617188 -38.085938 27.488281 -38.765625 23.0625 -38.765625 L 11.90625 -38.765625 L 11.90625 -22.671875 Z M 23.375 -22.671875 "/></g></g></g><g fill="#000000" fill-opacity="1"><g transform="translate(229.54027, 97.292664)"><g><path d="M 19.25 0.3125 C 18.445312 0.3125 17.769531 0.0390625 17.21875 -0.5 C 16.675781 -1.050781 16.40625 -1.726562 16.40625 -2.53125 L 16.40625 -38.828125 L 3.484375 -38.828125 C 2.722656 -38.828125 2.085938 -39.078125 1.578125 -39.578125 C 1.078125 -40.085938 0.828125 -40.722656 0.828125 -41.484375 C 0.828125 -42.242188 1.078125 -42.890625 1.578125 -43.421875 C 2.085938 -43.953125 2.722656 -44.21875 3.484375 -44.21875 L 35.03125 -44.21875 C 35.789062 -44.21875 36.429688 -43.953125 36.953125 -43.421875 C 37.484375 -42.890625 37.75 -42.242188 37.75 -41.484375 C 37.75 -40.722656 37.484375 -40.085938 36.953125 -39.578125 C 36.429688 -39.078125 35.789062 -38.828125 35.03125 -38.828125 L 22.171875 -38.828125 L 22.171875 -2.53125 C 22.171875 -1.726562 21.882812 -1.050781 21.3125 -0.5 C 20.738281 0.0390625 20.050781 0.3125 19.25 0.3125 Z M 19.25 0.3125 "/></g></g></g><g fill="#000000" fill-opacity="1"><g transform="translate(268.105047, 97.292664)"><g><path d="M 6.015625 0.3125 C 5.171875 0.3125 4.484375 0.0390625 3.953125 -0.5 C 3.429688 -1.050781 3.171875 -1.726562 3.171875 -2.53125 C 3.171875 -2.875 3.273438 -3.296875 3.484375 -3.796875 L 19.640625 -41.9375 C 19.972656 -42.695312 20.445312 -43.316406 21.0625 -43.796875 C 21.675781 -44.285156 22.425781 -44.53125 23.3125 -44.53125 L 23.9375 -44.53125 C 24.832031 -44.53125 25.582031 -44.285156 26.1875 -43.796875 C 26.800781 -43.316406 27.28125 -42.695312 27.625 -41.9375 L 43.765625 -3.796875 C 43.984375 -3.296875 44.09375 -2.875 44.09375 -2.53125 C 44.09375 -1.726562 43.828125 -1.050781 43.296875 -0.5 C 42.765625 0.0390625 42.078125 0.3125 41.234375 0.3125 C 40.640625 0.3125 40.097656 0.15625 39.609375 -0.15625 C 39.128906 -0.476562 38.765625 -0.910156 38.515625 -1.453125 L 34.390625 -11.34375 L 12.859375 -11.34375 L 8.734375 -1.453125 C 8.484375 -0.910156 8.113281 -0.476562 7.625 -0.15625 C 7.144531 0.15625 6.609375 0.3125 6.015625 0.3125 Z M 15.078125 -16.59375 L 32.171875 -16.59375 L 23.625 -37.1875 Z M 15.078125 -16.59375 "/></g></g></g><g fill="#000000" fill-opacity="1"><g transform="translate(315.345306, 97.292664)"><g><path d="M 10.140625 0 C 9.035156 0 8.09375 -0.390625 7.3125 -1.171875 C 6.53125 -1.953125 6.140625 -2.890625 6.140625 -3.984375 L 6.140625 -41.609375 C 6.140625 -42.421875 6.414062 -43.109375 6.96875 -43.671875 C 7.519531 -44.242188 8.195312 -44.53125 9 -44.53125 C 9.800781 -44.53125 10.484375 -44.242188 11.046875 -43.671875 C 11.617188 -43.109375 11.90625 -42.421875 11.90625 -41.609375 L 11.90625 -5.765625 L 32.625 -5.765625 C 33.425781 -5.765625 34.109375 -5.476562 34.671875 -4.90625 C 35.242188 -4.332031 35.53125 -3.644531 35.53125 -2.84375 C 35.53125 -2.039062 35.242188 -1.363281 34.671875 -0.8125 C 34.109375 -0.269531 33.425781 0 32.625 0 Z M 10.140625 0 "/></g></g></g><g clip-path="url(#150519fe26)"><g clip-path="url(#d19284df63)"><path fill="#ff914d" d="M 360.703125 87.617188 L 374.40625 87.617188 L 374.40625 101.320312 L 360.703125 101.320312 Z M 360.703125 87.617188 " fill-opacity="1" fill-rule="nonzero"/></g></g><g clip-path="url(#fa41bdf720)"><g clip-path="url(#24777f1e82)"><path fill="url(#1c07dddbd7)" d="M 0.601562 35.703125 L 0.601562 120.933594 L 82.085938 120.933594 L 82.085938 35.703125 Z M 0.601562 35.703125 " fill-rule="nonzero"/></g></g></svg>