<svg xmlns="http://www.w3.org/2000/svg" xmlns:xlink="http://www.w3.org/1999/xlink" width="50" zoomAndPan="magnify" viewBox="0 0 37.5 37.499999" height="50" preserveAspectRatio="xMidYMid meet" version="1.0"><defs><clipPath id="bb5973640e"><path d="M 0 5 L 32 5 L 32 37.007812 L 0 37.007812 Z M 0 5 " clip-rule="nonzero"/></clipPath><clipPath id="458e0331b6"><path d="M 13 0 L 37.007812 0 L 37.007812 24 L 13 24 Z M 13 0 " clip-rule="nonzero"/></clipPath></defs><g clip-path="url(#bb5973640e)"><path fill="#000000" d="M 30.191406 17.445312 C 29.25 17.445312 28.488281 18.207031 28.488281 19.144531 L 28.488281 33.605469 L 3.398438 33.605469 L 3.398438 8.515625 L 17.859375 8.515625 C 18.796875 8.515625 19.5625 7.753906 19.5625 6.8125 C 19.5625 5.875 18.796875 5.113281 17.859375 5.113281 L 1.703125 5.113281 C 0.761719 5.113281 0 5.875 0 6.8125 L 0 35.300781 C 0 36.242188 0.761719 37.003906 1.703125 37.003906 L 30.191406 37.003906 C 31.128906 37.003906 31.890625 36.242188 31.890625 35.300781 L 31.890625 19.144531 C 31.890625 18.207031 31.128906 17.445312 30.191406 17.445312 Z M 30.191406 17.445312 " fill-opacity="1" fill-rule="nonzero"/></g><g clip-path="url(#458e0331b6)"><path fill="#000000" d="M 35.300781 0 L 25.042969 0 C 24.101562 0 23.339844 0.765625 23.339844 1.703125 C 23.339844 2.644531 24.097656 3.40625 25.042969 3.40625 L 31.195312 3.40625 L 13.671875 20.925781 C 13.003906 21.59375 13.003906 22.667969 13.671875 23.328125 C 14.003906 23.660156 14.4375 23.828125 14.875 23.828125 C 15.3125 23.828125 15.746094 23.660156 16.078125 23.328125 L 33.601562 5.804688 L 33.601562 11.964844 C 33.601562 12.902344 34.363281 13.664062 35.304688 13.664062 C 36.242188 13.664062 37.007812 12.902344 37.007812 11.964844 L 37.007812 1.703125 C 37.003906 0.765625 36.238281 0 35.300781 0 Z M 35.300781 0 " fill-opacity="1" fill-rule="nonzero"/></g></svg>